HIERARCHY
ROOT Hips
{
 OFFSET 0.000000 0.000000 0.000000
 CHANNELS 6 Xposition Yposition Zposition Yrotation Xrotation Zrotation
 JOINT Chest
 {
  OFFSET 0.000000 9.585900 0.002600
  CHANNELS 3 Yrotation Xrotation Zrotation
  JOINT Chest2
  {
   OFFSET 0.000000 9.601200 -0.005300
   CHANNELS 3 Yrotation Xrotation Zrotation
   JOINT Chest3
   {
    OFFSET 0.000000 9.561800 0.000000
    CHANNELS 3 Yrotation Xrotation Zrotation
    JOINT Chest4
    {
     OFFSET 0.000000 9.552100 0.000000
     CHANNELS 3 Yrotation Xrotation Zrotation
     JOINT Neck
     {
      OFFSET 0.000000 14.453000 0.000000
      CHANNELS 3 Yrotation Xrotation Zrotation
      JOINT Head
      {
       OFFSET 0.000000 8.936500 -0.011300
       CHANNELS 3 Yrotation Xrotation Zrotation
       End Site
       {
        OFFSET 0.000000 17.073600 -0.006000
       }
      }
     }
     JOINT RightCollar
     {
      OFFSET -2.921100 9.558500 0.000000
      CHANNELS 3 Yrotation Xrotation Zrotation
      JOINT RightShoulder
      {
       OFFSET -13.519700 0.000000 0.000000
       CHANNELS 3 Yrotation Xrotation Zrotation
       JOINT RightElbow
       {
        OFFSET 0.000000 -29.696600 0.000000
        CHANNELS 3 Yrotation Xrotation Zrotation
        JOINT RightWrist
        {
         OFFSET 0.000000 -24.004700 0.000000
         CHANNELS 3 Yrotation Xrotation Zrotation
         End Site
         {
          OFFSET 0.000000 -17.728500 0.000000
         }
        }
       }
      }
     }
     JOINT LeftCollar
     {
      OFFSET 2.921100 9.558500 0.000000
      CHANNELS 3 Yrotation Xrotation Zrotation
      JOINT LeftShoulder
      {
       OFFSET 13.519700 0.000000 0.000000
       CHANNELS 3 Yrotation Xrotation Zrotation
       JOINT LeftElbow
       {
        OFFSET 0.000000 -29.696600 0.000000
        CHANNELS 3 Yrotation Xrotation Zrotation
        JOINT LeftWrist
        {
         OFFSET 0.000000 -24.004700 0.000000
         CHANNELS 3 Yrotation Xrotation Zrotation
         End Site
         {
          OFFSET 0.000000 -17.728500 0.000000
         }
        }
       }
      }
     }
    }
   }
  }
 }
 JOINT RightHip
 {
  OFFSET -7.771700 -0.012900 -0.001300
  CHANNELS 3 Yrotation Xrotation Zrotation
  JOINT RightKnee
  {
   OFFSET 0.000000 -40.869800 0.001200
   CHANNELS 3 Yrotation Xrotation Zrotation
   JOINT RightAnkle
   {
    OFFSET 0.000000 -39.717900 0.002100
    CHANNELS 3 Yrotation Xrotation Zrotation
    JOINT RightToe
    {
     OFFSET 0.000000 -4.965400 11.033500
     CHANNELS 3 Yrotation Xrotation Zrotation
     End Site
     {
      OFFSET 0.000000 -1.423100 5.872300
     }
    }
   }
  }
 }
 JOINT LeftHip
 {
  OFFSET 7.771700 -0.012900 -0.001300
  CHANNELS 3 Yrotation Xrotation Zrotation
  JOINT LeftKnee
  {
   OFFSET 0.000000 -40.869800 0.001200
   CHANNELS 3 Yrotation Xrotation Zrotation
   JOINT LeftAnkle
   {
    OFFSET 0.000000 -39.717900 0.002100
    CHANNELS 3 Yrotation Xrotation Zrotation
    JOINT LeftToe
    {
     OFFSET 0.000000 -4.965400 11.033500
     CHANNELS 3 Yrotation Xrotation Zrotation
     End Site
     {
      OFFSET 0.000000 -1.423100 5.872300
     }
    }
   }
  }
 }
}
MOTION
Frames: 12
Frame Time: 0.008333
0.000000 85.388000 0.000000 0.000000 -5.767877 0.000000 0.000000 11.653817 0.000000 0.000000 -5.885947 0.000000 0.000000 -0.000000 0.000000 0.000000 -0.000000 0.000000 0.000000 12.528835 0.000000 0.000000 0.711642 0.000000 0.000000 -0.000000 0.000000 0.000000 0.000000 -90.000000 0.000000 -2.309062 0.000000 0.000000 2.309062 0.000000 0.000000 -0.000000 0.000000 0.000000 -0.000000 90.000000 0.000000 -2.309062 0.000000 0.000000 2.309062 0.000000 0.000000 8.520406 0.000000 0.000000 1.905762 0.000000 -0.000000 -4.658285 0.000000 0.000000 -0.000000 0.000000 0.000000 8.520406 0.000000 0.000000 1.905762 0.000000 -0.000000 -4.658285 0.000000 0.000000 -0.000000 0.000000
-224.769672 57.677791 -75.784096 161.189581 -7.283406 0.110329 2.704897 6.670545 1.736565 0.066690 0.271276 0.055553 0.169304 0.503546 0.074833 2.332221 6.408352 0.987246 -3.288970 14.318526 2.137833 -6.994232 -8.993550 5.270618 2.631148 6.633584 1.330417 -3.546618 -6.769129 -8.485311 48.402280 -81.871352 -33.214440 -2.863669 6.317556 -36.898249 -6.053936 5.674366 -2.795161 13.913712 -4.197232 4.761795 48.035627 -70.636791 -76.775886 -3.703786 9.312887 10.425968 -12.570317 -64.600055 5.398377 -35.563469 72.194978 -37.489675 -4.642583 -7.318481 0.512255 -0.314229 0.735908 -0.120923 -4.544252 -66.864644 17.472845 43.724328 63.940623 38.027357 -17.378049 -8.675469 1.957470 -0.161131 -1.104814 -0.080590
-224.777546 57.681807 -75.784252 161.111453 -7.192871 0.165085 2.726126 6.552825 1.703808 0.050755 0.250969 0.058174 0.178916 0.497817 0.068436 2.325859 6.307621 0.988225 -3.270839 14.347525 2.189340 -6.977670 -8.937102 5.358071 2.638637 6.604999 1.305532 -3.262381 -6.677393 -8.759338 47.984805 -81.879673 -32.210268 -2.775035 6.393053 -36.718620 -5.973977 5.617234 -2.749027 13.610857 -4.056307 4.821734 47.089885 -70.270807 -76.308577 -3.792662 9.356616 10.066399 -12.434197 -64.699271 5.343155 -35.516021 72.177035 -37.477251 -4.602014 -7.295093 0.549579 -0.364349 0.740614 -0.136964 -4.376707 -66.949439 17.373953 43.723073 63.942070 38.028578 -17.429797 -8.645621 1.966248 -0.122169 -1.129022 -0.084384
-224.779636 57.687224 -75.788094 161.046539 -7.119710 0.195366 2.697157 6.425676 1.700226 0.087514 0.265983 0.042422 0.175859 0.481631 0.067197 2.322845 6.201736 0.984578 -3.250039 14.381195 2.241544 -6.955942 -8.872099 5.445416 2.632160 6.606985 1.264307 -2.960009 -6.608496 -8.992911 47.747270 -81.884869 -31.374387 -2.667877 6.438063 -36.489303 -5.884233 5.579328 -2.693630 13.323943 -3.936008 4.872263 46.217235 -69.746191 -76.039760 -3.848144 9.340651 9.670740 -12.332087 -64.777379 5.322230 -35.509890 72.164580 -37.488505 -4.604565 -7.269785 0.571816 -0.378307 0.732658 -0.142177 -4.276467 -67.013026 17.334223 43.727889 63.945739 38.034043 -17.457490 -8.635604 1.969257 -0.114612 -1.139263 -0.087524
-224.776931 57.693651 -75.794799 161.013624 -7.059509 0.204890 2.666884 6.324563 1.703494 0.098320 0.264755 0.037168 0.172855 0.465169 0.065730 2.321543 6.091904 0.978102 -3.226632 14.417959 2.293610 -6.928943 -8.801462 5.531321 2.613865 6.636015 1.205040 -2.643453 -6.559289 -9.180502 47.764424 -81.881832 -30.792905 -2.543113 6.449927 -36.218466 -5.790718 5.559360 -2.628505 13.050515 -3.834535 4.913251 45.452375 -69.090447 -75.981159 -3.865681 9.258804 9.252634 -12.301054 -64.835473 5.341154 -35.526937 72.154490 -37.512246 -4.621202 -7.248162 0.565301 -0.379625 0.719064 -0.132078 -4.244235 -67.066475 17.335237 43.732405 63.950668 38.039481 -17.471807 -8.614500 1.978622 -0.135368 -1.130253 -0.092036
-224.772725 57.700166 -75.800054 160.988606 -6.983382 0.209079 2.655026 6.223139 1.703542 0.086001 0.246727 0.037437 0.169784 0.448597 0.063979 2.319603 5.979301 0.967892 -3.199601 14.456600 2.345710 -6.894945 -8.727651 5.615775 2.586453 6.684154 1.129852 -2.320309 -6.523081 -9.318797 48.120989 -81.870140 -30.557506 -2.403178 6.429440 -35.910687 -5.691863 5.556126 -2.550383 12.780590 -3.749359 4.943489 44.804759 -68.342535 -76.111261 -3.851619 9.110658 8.818635 -12.294170 -64.908116 5.382077 -35.552382 72.143126 -37.545704 -4.640630 -7.227005 0.567035 -0.361561 0.706836 -0.136435 -4.234789 -67.134854 17.352274 43.731138 63.950649 38.035188 -17.469600 -8.584093 1.991283 -0.143952 -1.160840 -0.105613
-224.771203 57.706157 -75.802108 160.908440 -6.874667 0.237808 2.720305 6.107231 1.680571 0.054876 0.212317 0.039460 0.166618 0.432114 0.061749 2.316225 5.865728 0.951772 -3.169037 14.496609 2.398009 -6.854282 -8.651755 5.699191 2.549421 6.743047 1.045535 -1.996552 -6.493649 -9.408199 48.864867 -81.851758 -30.720569 -2.246859 6.382768 -35.571938 -5.584302 5.570880 -2.455744 12.506255 -3.685236 4.961556 44.244361 -67.539105 -76.378297 -3.817247 8.902206 8.373810 -12.216946 -65.020589 5.408172 -35.573695 72.127701 -37.584071 -4.650773 -7.210274 0.580351 -0.357141 0.704083 -0.140147 -4.185429 -67.213896 17.375182 43.731274 63.946151 38.013039 -17.465581 -8.593857 1.988267 -0.146841 -1.142789 -0.103326
-224.763503 57.712452 -75.807745 160.824200 -6.790851 0.249743 2.760370 5.991600 1.675227 0.068549 0.214350 0.035929 0.173714 0.434326 0.060208 2.294364 5.725722 0.927874 -3.135711 14.536830 2.449865 -6.808260 -8.575672 5.780754 2.503011 6.806084 0.957853 -1.675317 -6.465388 -9.453269 49.993302 -81.827719 -31.289687 -2.071245 6.319088 -35.204207 -5.474916 5.602080 -2.349000 12.234545 -3.646718 4.967702 43.738728 -66.718467 -76.735556 -3.764681 8.644209 7.927128 -12.155296 -65.102309 5.477088 -35.633865 72.097512 -37.671025 -4.677805 -7.179562 0.591742 -0.339367 0.689279 -0.128136 -4.162387 -67.269614 17.433621 43.729639 63.950680 38.005845 -17.466657 -8.610836 1.969977 -0.112501 -1.108576 -0.085198
-224.756334 57.718373 -75.815244 160.779888 -6.710079 0.275639 2.768246 5.880864 1.649760 0.069474 0.210134 0.031554 0.186393 0.441791 0.061162 2.277154 5.592359 0.898232 -3.099965 14.575375 2.500786 -6.757478 -8.502877 5.859741 2.450934 6.865883 0.871273 -1.361478 -6.431108 -9.460227 51.482961 -81.795546 -32.247406 -1.880263 6.245655 -34.815055 -5.372801 5.643839 -2.234673 11.976354 -3.629347 4.958362 43.269395 -65.922571 -77.146683 -3.701225 8.356468 7.479979 -12.099331 -65.183761 5.482891 -35.649281 72.084486 -37.707512 -4.670166 -7.156832 0.612287 -0.347591 0.676441 -0.136534 -4.133487 -67.324133 17.446261 43.729909 63.943579 37.988227 -17.472362 -8.597677 1.961840 -0.108610 -1.125871 -0.085908
-224.749058 57.723187 -75.819715 160.728915 -6.606463 0.308549 2.764871 5.736361 1.610088 0.082974 0.213303 0.029943 0.187756 0.430905 0.060221 2.281646 5.491223 0.868612 -3.061836 14.610525 2.550003 -6.701944 -8.436808 5.934845 2.398638 6.915910 0.790242 -1.062600 -6.385174 -9.433155 53.291972 -81.752769 -33.548360 -1.681424 6.165369 -34.420103 -5.279894 5.690672 -2.115132 11.730455 -3.625861 4.927179 42.824374 -65.187186 -77.578987 -3.639416 8.066954 7.035102 -12.030977 -65.288155 5.498248 -35.680387 72.065983 -37.769146 -4.684960 -7.148997 0.642188 -0.358084 0.679957 -0.144992 -4.093291 -67.400848 17.453955 43.728024 63.936050 37.965193 -17.477645 -8.581509 1.951200 -0.071321 -1.124987 -0.074278
-224.738529 57.727294 -75.825394 160.686298 -6.511361 0.337528 2.774337 5.616675 1.574806 0.088200 0.211251 0.028644 0.181274 0.413712 0.058846 2.289524 5.394683 0.836727 -3.022678 14.641853 2.596177 -6.643573 -8.378154 6.004119 2.349161 6.953185 0.718180 -0.786788 -6.324361 -9.375059 55.361046 -81.701230 -35.128402 -1.480031 6.082194 -34.032762 -5.199826 5.739724 -1.995595 11.487487 -3.631679 4.874270 42.400268 -64.535372 -78.002717 -3.584182 7.801020 6.602219 -11.959968 -65.384938 5.500355 -35.744234 72.052567 -37.841983 -4.705436 -7.151430 0.649635 -0.351869 0.684281 -0.142391 -4.065797 -67.469439 17.464977 43.726412 63.929073 37.943270 -17.467330 -8.563996 1.943708 -0.089546 -1.125528 -0.073352
-224.721753 57.730857 -75.834358 160.660987 -6.443664 0.348647 2.777263 5.528273 1.556612 0.087101 0.204239 0.027045 0.153683 0.360412 0.048075 2.322180 5.341546 0.815029 -2.982334 14.670602 2.637911 -6.581364 -8.324694 6.064938 2.306653 6.976275 0.655582 -0.535047 -6.243933 -9.291678 57.611160 -81.644606 -36.910258 -1.287170 5.998039 -33.660436 -5.143258 5.810442 -1.900584 11.248632 -3.666288 4.818211 41.994744 -63.979671 -78.392460 -3.538732 7.572630 6.180081 -11.927978 -65.451198 5.524176 -35.809514 72.048561 -37.914270 -4.704478 -7.149399 0.641134 -0.342018 0.675721 -0.126732 -4.059100 -67.522877 17.483194 43.729343 63.929011 37.943559 -17.440775 -8.531351 1.940962 -0.089522 -1.140128 -0.076499
